<svg xmlns="http://www.w3.org/2000/svg" width="430" height="430" style="width:100%;height:100%;transform:translate3d(0,0,0);content-visibility:visible" viewBox="0 0 430 430"><defs><clipPath id="d"><path d="M0 0h430v430H0z"/></clipPath><clipPath id="i"><path d="M0 0h430v430H0z"/></clipPath><clipPath id="g"><path d="M0 0h430v430H0z"/></clipPath><clipPath id="e"><path d="M0 0h430v430H0z"/></clipPath><path id="a" style="display:none"/><path id="b" fill="red" d="M180-135h-360v270h360z" style="display:block" transform="translate(215 215)"/><path id="c" style="display:none"/><mask id="j" mask-type="alpha"><use xmlns:ns1="http://www.w3.org/1999/xlink" ns1:href="#a"/></mask><mask id="h" mask-type="alpha"><use xmlns:ns2="http://www.w3.org/1999/xlink" ns2:href="#b"/></mask><mask id="f" mask-type="alpha"><use xmlns:ns3="http://www.w3.org/1999/xlink" ns3:href="#c"/></mask></defs><g clip-path="url(#d)"><g fill="none" clip-path="url(#e)" style="display:none"><g mask="url(#f)" style="display:none"><path class="primary"/><path class="primary"/></g><path class="secondary" style="display:none"/><path class="secondary" style="display:none"/><path class="primary" style="display:none"/></g><g clip-path="url(#g)" style="display:block"><g mask="url(#h)" style="display:block"><path fill="none" stroke="#F85858" stroke-width="18" d="M325 1239h70m-290 90H35m70-90H35m290 90h70m-291-180H34m290 0h70M104 887H34m290 0h70M104 621H34m290 0h70M103.733 53.524h-70m290 0h70m-290 327.906h-70m290 0h70M105 261H35m70-90H35m290 90h70m-70-90h70M105 536H35m70-90H35m290 90h70m-70-90h70M105 803H35m70-90H35m290 90h70m-70-90h70m-290 351H35m70-90H35m290 90h70m-70-90h70M105 348V81.75M325 348V81.75" class="primary"/></g><path fill="none" stroke="#F85858" stroke-linejoin="round" stroke-width="18" d="M45 35 0-35l-1.162 1.807L-45 35z" class="secondary" style="display:none" transform="rotate(90 2.5 217.5)"/><path fill="none" stroke="#F85858" stroke-linejoin="round" stroke-width="18" d="M45 35 0-35l-1.162 1.807L-45 35z" class="secondary" style="display:block" transform="rotate(90 2.5 217.5)"/><path fill="none" class="secondary" style="display:none"/><path fill="none" class="secondary" style="display:none"/><path fill="none" stroke="#F85858" stroke-linejoin="round" stroke-width="18" d="M180-135h-360v270h360z" class="primary" style="display:block" transform="translate(215 215)"/></g><g fill="none" clip-path="url(#i)" style="display:none"><g mask="url(#j)" style="display:none"><path class="primary"/><path class="primary"/></g><path class="secondary" style="display:none"/><path class="secondary" style="display:none"/><path class="secondary" style="display:none"/><path class="primary" style="display:none"/></g></g></svg>